<?xml version="1.0" encoding="utf-8"?>
<!-- Generator: Adobe Illustrator 12.0.1, SVG Export Plug-In . SVG Version: 6.00 Build 51448)  -->
<!DOCTYPE svg PUBLIC "-//W3C//DTD SVG 1.1//EN" "http://www.w3.org/Graphics/SVG/1.1/DTD/svg11.dtd" [
	<!ENTITY ns_svg "http://www.w3.org/2000/svg">
	<!ENTITY ns_xlink "http://www.w3.org/1999/xlink">
]>
<svg  version="1.1" id="Version_1.0" xmlns="&ns_svg;" xmlns:xlink="&ns_xlink;" width="612" height="792" viewBox="0 0 612 792"
	 overflow="visible" enable-background="new 0 0 612 792" xml:space="preserve">
<g id="main">
	<polygon stroke="#000000" points="305.513,395.5 242.457,266.657 368.379,267.013 	"/>
	
		<path fill="#FFFFFF" stroke="#000000" stroke-width="6.5011" stroke-linecap="round" stroke-linejoin="round" stroke-miterlimit="10" d="
		M305.513,122.793c-51.546,0-93.353,36.622-93.353,81.813c0,45.19,41.807,81.812,93.353,81.812s93.327-36.621,93.327-81.812
		S357.059,122.793,305.513,122.793"/>
	<text transform="matrix(1 0 0 1 299.3608 226.1787)" font-family="sans-serif" font-size="52"> </text>
	<g id="_x3C_path_x3E_">
		<text id="varLEe" transform="matrix(1 0 0 1 274.7827 226.1787)" font-family="sans-serif" font-size="52">LE</text>
	</g>
</g>
<g id="template" display="none">
	<g id="points" display="inline">
		<text transform="matrix(1 0 0 1 398.1719 428.5664)" font-family="sans-serif" font-size="32.3352">POINT</text>
		<text transform="matrix(1 0 0 1 398.1719 390.0137)" font-family="sans-serif" font-size="32.3352">ANCHOR</text>
		<path stroke="#000000" stroke-width="0.3896" stroke-linejoin="bevel" stroke-miterlimit="10" d="M386.471,398.465h-48.695
			c-0.877,0-1.606-0.707-1.606-1.607c0-0.898,0.729-1.63,1.606-1.63h48.695c0.9,0,1.631,0.731,1.631,1.63
			C388.102,397.759,387.373,398.465,386.471,398.465L386.471,398.465z M341.037,406.598l-32.48-9.74l32.48-9.736V406.598z"/>
	</g>
	<g display="inline">
		<text transform="matrix(1 0 0 1 274.7827 226.1787)" font-family="sans-serif" font-size="52">LE</text>
	</g>
</g>
</svg>
