<?xml version="1.0" encoding="utf-8"?>
<!--  APP-6(D)(2) Generator: Adobe Illustrator 12.0.1, SVG Export Plug-In . SVG Version: 6.00 Build 51448)  -->
<!DOCTYPE svg PUBLIC "-//W3C//DTD SVG 1.1//EN" "http://www.w3.org/Graphics/SVG/1.1/DTD/svg11.dtd" [
	<!ENTITY ns_svg "http://www.w3.org/2000/svg">
	<!ENTITY ns_xlink "http://www.w3.org/1999/xlink">
]>
<svg  version="1.1" id="Version_1.0" xmlns="&ns_svg;" xmlns:xlink="&ns_xlink;" width="383" height="399"
	 viewBox="191.5 160 383 399" overflow="visible" enable-background="new 191.5 160 383 399" xml:space="preserve">
<g id="main_1_">
	<rect id="template2" x="185.5" y="154" opacity="0.16" fill="#474747" enable-background="new    " width="394" height="411"/>
	<g id="main" opacity="0.75">
		
			<rect x="362.433" y="195.216" transform="matrix(-0.729 -0.6845 0.6845 -0.729 512.3271 835.7276)" fill="#557788" fill-opacity="0.25" stroke="#FFFFFF" stroke-width="5" stroke-miterlimit="8" width="118.322" height="242.467"/>
	</g>
</g>
<g id="Example" display="none">
	<circle display="inline" fill="none" stroke="#ACAEAF" stroke-width="3" cx="202.667" cy="547.5" r="14"/>
	<line display="inline" fill="none" stroke="#ACAEAF" stroke-width="3" x1="202.667" y1="561.5" x2="202.667" y2="533.5"/>
	<line display="inline" fill="none" stroke="#ACAEAF" stroke-width="3" x1="188.667" y1="547.5" x2="216.667" y2="547.5"/>
</g>
<g id="template" display="none">
	
		<line display="inline" fill="none" stroke="#000000" stroke-width="2" stroke-miterlimit="2" stroke-dasharray="8" x1="505.902" y1="228.776" x2="202.517" y2="549.892"/>
	
		<line display="inline" fill="none" stroke="#000000" stroke-width="2" stroke-miterlimit="2" stroke-dasharray="8" x1="202.5" y1="397" x2="202.5" y2="548.5"/>
	<path display="inline" fill="none" stroke="#000000" stroke-width="2" stroke-linecap="round" stroke-dasharray="8" d="
		M205.25,434.066c12.836,0.316,27.52,2.297,42.73,6.767c15.131,4.444,27.379,10.619,37.802,17.208"/>
	<polygon display="inline" stroke="#000000" stroke-width="2" stroke-miterlimit="10" points="288.127,459.199 281.842,459.243 
		275.559,459.285 278.663,453.971 281.77,448.657 284.947,453.93 	"/>
	<rect x="196" y="447.876" display="inline" fill="none" width="85" height="27.248"/>
	<text transform="matrix(1 0 0 1 211.9863 456.3965)" display="inline" font-family="sans-serif" font-size="12">ROTATION</text>
	<text transform="matrix(1 0 0 1 221.2207 470.7959)" display="inline" font-family="sans-serif" font-size="12">ANGLE</text>
	
		<text transform="matrix(0.7583 0.6837 -0.6696 0.7427 494.1924 203.2676)" display="inline" font-family="sans-serif" font-size="17.4047">WIDTH</text>
	
		<text transform="matrix(0.684 -0.758 0.7424 0.67 460.7031 393.689)" display="inline" font-family="sans-serif" font-size="17.4047">LENGTH</text>
	
		<line display="inline" fill="none" stroke="#000000" stroke-width="2" stroke-miterlimit="10" x1="452.706" y1="391.238" x2="393.794" y2="454.262"/>
	
		<line display="inline" fill="none" stroke="#000000" stroke-width="2" stroke-miterlimit="10" x1="556.332" y1="278.394" x2="498.168" y2="342.106"/>
	
		<line display="inline" fill="none" stroke="#000000" stroke-width="2" stroke-miterlimit="10" x1="554.5" y1="252" x2="538.021" y2="236.979"/>
	
		<line display="inline" fill="none" stroke="#000000" stroke-width="2" stroke-miterlimit="10" x1="496.5" y1="198" x2="474.52" y2="176.979"/>
	<polygon display="inline" stroke="#000000" stroke-width="2" stroke-miterlimit="10" points="482.981,176.704 478.579,181.19 
		474.178,185.674 472.6,179.725 471.023,173.775 477.003,175.241 	"/>
	<polygon display="inline" stroke="#000000" stroke-width="2" stroke-miterlimit="10" points="548.872,255.294 552.651,250.271 
		556.43,245.251 558.771,250.943 561.11,256.637 554.991,255.963 	"/>
	<polygon display="inline" stroke="#000000" stroke-width="2" stroke-miterlimit="10" points="556.577,287.461 551.596,283.627 
		546.617,279.794 552.334,277.515 558.053,275.238 557.313,281.35 	"/>
	<polygon display="inline" stroke="#000000" stroke-width="2" stroke-miterlimit="10" points="394.727,444.32 399.13,448.808 
		403.53,453.293 397.553,454.759 391.574,456.223 393.153,450.271 	"/>
	<circle display="inline" cx="427" cy="311.5" r="5.5"/>
	<rect x="287.75" y="263" display="inline" fill="none" width="61.5" height="26"/>
	<text transform="matrix(1 0 0 1 296.1265 271.5195)" display="inline" font-family="sans-serif" font-size="12">ANCHOR  </text>
	<text transform="matrix(1 0 0 1 302.8105 285.9199)" display="inline" font-family="sans-serif" font-size="12">POINT</text>
	
		<line display="inline" fill="none" stroke="#000000" stroke-width="2" stroke-miterlimit="8" x1="345" y1="279" x2="414.5" y2="306"/>
	<polygon display="inline" stroke="#000000" stroke-width="2" stroke-miterlimit="10" points="407.379,309.309 410.109,303.647 
		412.839,297.989 416.243,303.116 419.645,308.246 413.511,308.776 	"/>
</g>
</svg>
