<?xml version="1.0" encoding="utf-8"?>
<!-- Generator: Adobe Illustrator 12.0.1, SVG Export Plug-In . SVG Version: 6.00 Build 51448)  -->
<!DOCTYPE svg PUBLIC "-//W3C//DTD SVG 1.1//EN" "http://www.w3.org/Graphics/SVG/1.1/DTD/svg11.dtd" [
	<!ENTITY ns_svg "http://www.w3.org/2000/svg">
	<!ENTITY ns_xlink "http://www.w3.org/1999/xlink">
]>
<svg  version="1.1" id="Version_1.0" xmlns="&ns_svg;" xmlns:xlink="&ns_xlink;" width="619" height="234"
	 viewBox="-110.5 242 619 234" overflow="visible" enable-background="new -110.5 242 619 234" xml:space="preserve">
<g id="example" display="none">
	<g id="example_1_" display="inline">
		<text transform="matrix(1 0 0 1 38.6357 472.5)" fill="#969696" font-family="'ArialMT'" font-size="28">060800ZJUN07</text>
		
			<text id="varW1e" transform="matrix(1 0 0 1 38.6357 472.5)" fill="none" stroke="#969696" font-family="'ArialMT'" font-size="28">060800ZJUN07</text>
		<text transform="matrix(1 0 0 1 37.9883 439.416)" fill="#969696" font-family="'ArialMT'" font-size="28">060500ZJUN07 </text>
		<text transform="matrix(1 0 0 1 37.9883 439.416)" fill="none" stroke="#969696" font-family="'ArialMT'" font-size="28">060500ZJUN07 </text>
		<text transform="matrix(1 0 0 1 241.8906 439.416)" font-family="'ArialMT'" font-size="28">-</text>
		<text transform="matrix(1 0 0 1 241.8906 439.416)" fill="none" stroke="#969696" font-family="'ArialMT'" font-size="28">-</text>
		<g id="varAe">
			
				<line fill="none" stroke="#969696" stroke-width="5" stroke-linejoin="round" stroke-miterlimit="8" x1="134.856" y1="341.675" x2="134.856" y2="390"/>
			
				<line fill="none" stroke="#969696" stroke-width="5" stroke-linejoin="round" stroke-miterlimit="8" x1="183.262" y1="341.675" x2="183.262" y2="390"/>
			
				<line fill="none" stroke="#969696" stroke-width="5" stroke-linejoin="round" stroke-miterlimit="8" x1="134.856" y1="349.729" x2="183.262" y2="349.729"/>
			
				<line fill="none" stroke="#969696" stroke-width="5" stroke-linejoin="round" stroke-miterlimit="8" x1="134.856" y1="381.943" x2="183.262" y2="381.943"/>
		</g>
		<text transform="matrix(1 0 0 1 225.249 376.1758)" fill="#969696" font-family="'ArialMT'" font-size="28">5</text>
		
			<text id="varHe" transform="matrix(1 0 0 1 225.249 376.1758)" fill="none" stroke="#969696" font-family="'ArialMT'" font-size="28">5</text>
		<text transform="matrix(1 0 0 1 30.624 376.1748)" fill="#969696" font-family="'ArialMT'" font-size="28">M1A2</text>
		
			<text id="varVe" transform="matrix(1 0 0 1 30.624 376.1748)" fill="none" stroke="#969696" font-family="'ArialMT'" font-size="28">M1A2</text>
	</g>
	<g id="frame" display="inline">
		<rect id="_x3C_path_x3E_" x="137.309" y="253.248" fill="#80E0FF" stroke="#969696" stroke-width="2" width="73.5" height="49"/>
	</g>
	<g display="inline">
		<g id="main_2_">
			<polygon fill="none" stroke="#969696" stroke-width="5" points="-46.5,333.5 -46.5,403.5 290.809,403.5 290.809,423.5 392,368.5 
				290.809,313.5 290.809,333.5 			"/>
		</g>
	</g>
	<g id="path" display="inline">
		<polyline id="symbol" fill="none" stroke="#969696" stroke-width="2" points="137.19,301.942 173.838,253.963 210.486,301.942 		
			"/>
		<path fill="none" stroke="#969696" stroke-width="2" d="M161.588,268.092c-12.25,0-12.25,18.895,0,18.895h24.5
			c12.25,0,12.25-18.895,0-18.895H161.588L161.588,268.092z"/>
	</g>
</g>
<g id="template" display="none">
	<g id="pt3" display="inline">
		<text transform="matrix(1 0 0 1 434.6494 429.335)" font-family="'Arial-BoldMT'" font-size="25.8104">PT. 3</text>
		<g>
			<polygon stroke="#000000" stroke-width="2" points="428.98,337.209 440.791,365.555 417.17,365.555 			"/>
			<line fill="none" stroke="#000000" stroke-width="2" x1="428.98" y1="358.471" x2="428.98" y2="429.334"/>
		</g>
	</g>
	<g id="pt2" display="inline">
		<text transform="matrix(1 0 0 1 -72.3506 431.335)" font-family="'Arial-BoldMT'" font-size="25.8104">PT. 2</text>
		<g>
			<polygon stroke="#000000" stroke-width="2" points="-78.02,339.209 -66.209,367.555 -89.83,367.555 			"/>
			<line fill="none" stroke="#000000" stroke-width="2" x1="-78.02" y1="360.471" x2="-78.02" y2="431.334"/>
		</g>
	</g>
	<g id="pt1" display="inline">
		<text transform="matrix(1 0 0 1 180.6494 410.3076)" font-family="'Arial-BoldMT'" font-size="25.8104">(Centre Point)</text>
		<text transform="matrix(1 0 0 1 180.6494 379.335)" font-family="'Arial-BoldMT'" font-size="25.8104">PT. 1</text>
		<g>
			<polygon stroke="#000000" stroke-width="2" points="174.98,287.209 186.791,315.555 163.17,315.555 			"/>
			<line fill="none" stroke="#000000" stroke-width="2" x1="174.98" y1="308.47" x2="174.98" y2="379.334"/>
		</g>
	</g>
	<g display="inline">
		<text transform="matrix(1 0 0 1 163.4922 283.75)" font-family="'Arial-BoldMT'" font-size="31">A</text>
		<rect x="138.567" y="249.401" fill="none" stroke="#000000" stroke-width="3" width="70.867" height="56.693"/>
	</g>
</g>
<g id="main">
	<polyline fill="none" stroke="#000000" stroke-width="5" points="88.96,277.748 -81.118,277.748 -81.118,334.441 	"/>
	<polyline fill="none" stroke="#000000" stroke-width="5" points="429.118,334.441 429.118,277.748 259.039,277.748 	"/>
	<rect x="101.557" y="266.748" fill="none" width="31.5" height="22"/>
	<rect x="214.943" y="266.748" fill="none" width="31.5" height="22"/>
	<text transform="matrix(1 0 0 1 107.6357 287.5117)" font-family="'Arial-BoldMT'" font-size="37">E</text>
	<text transform="matrix(1 0 0 1 221.0215 287.5117)" font-family="'Arial-BoldMT'" font-size="37">E</text>
</g>
</svg>
