<?xml version="1.0" encoding="utf-8"?>
<!-- Generator: Adobe Illustrator 12.0.1, SVG Export Plug-In . SVG Version: 6.00 Build 51448)  -->
<!DOCTYPE svg PUBLIC "-//W3C//DTD SVG 1.1//EN" "http://www.w3.org/Graphics/SVG/1.1/DTD/svg11.dtd" [
	<!ENTITY ns_svg "http://www.w3.org/2000/svg">
	<!ENTITY ns_xlink "http://www.w3.org/1999/xlink">
]>
<svg  version="1.1" id="Layer_1" xmlns="&ns_svg;" xmlns:xlink="&ns_xlink;" width="793.701" height="266.457"
	 viewBox="0 0 793.701 266.457" overflow="visible" enable-background="new 0 0 793.701 266.457" xml:space="preserve">
<g id="main">
	<path fill="none" stroke="#000000" stroke-width="5" d="M316.98,147.902c31.696,0,57.345-25.648,57.345-57.345l-0.306,0.306
		c0-31.145,25.202-56.348,56.347-56.348"/>
	<line fill="none" stroke="#000000" stroke-width="5" x1="34.017" y1="147.402" x2="317.48" y2="147.402"/>
	<line fill="none" stroke="#000000" stroke-width="5" x1="425.197" y1="34.016" x2="487.559" y2="34.016"/>
	<line fill="none" stroke="#000000" stroke-width="5" x1="566.929" y1="34.016" x2="714.331" y2="34.016"/>
	<rect x="504.567" y="17.008" fill="none" width="45.354" height="34.016"/>
	<text transform="matrix(1 0 0 1 506.5674 39.2031)" font-family="'Arial-BoldMT'" font-size="31">EX</text>
	<polyline fill="none" stroke="#000000" stroke-width="5" points="68.031,123.306 34.016,147.402 68.031,171.499 	"/>
</g>
<g id="template" display="none">
	<g display="inline">
		<text transform="matrix(1 0 0 1 720 136.0635)" font-family="'ArialMT'" font-size="25.8104">PT. 1</text>
		<g>
			<polygon stroke="#000000" stroke-width="2" points="714.331,43.938 726.142,72.283 702.52,72.283 			"/>
			<line fill="none" stroke="#000000" stroke-width="2" x1="714.331" y1="65.198" x2="714.331" y2="136.063"/>
		</g>
	</g>
	<text transform="matrix(1 0 0 1 413.8584 192.7559)" display="inline" font-family="'ArialMT'" font-size="25.8104">PT. 2</text>
	<g display="inline">
		<polygon stroke="#000000" stroke-width="2" points="375.986,92.197 401.112,109.852 381.143,122.47 		"/>
		<line fill="none" stroke="#000000" stroke-width="2" x1="387.343" y1="110.171" x2="425.197" y2="170.079"/>
	</g>
	<g display="inline">
		<text transform="matrix(1 0 0 1 34.4878 243.7803)" font-family="'ArialMT'" font-size="25.8104">PT. 3</text>
		<g>
			<polygon stroke="#000000" stroke-width="2" points="28.818,151.654 40.63,180 17.008,180 			"/>
			<line fill="none" stroke="#000000" stroke-width="2" x1="28.819" y1="172.915" x2="28.819" y2="243.78"/>
		</g>
	</g>
</g>
</svg>
