<?xml version="1.0" encoding="utf-8"?>
<!-- Generator: Adobe Illustrator 12.0.1, SVG Export Plug-In . SVG Version: 6.00 Build 51448)  -->
<!DOCTYPE svg PUBLIC "-//W3C//DTD SVG 1.1//EN" "http://www.w3.org/Graphics/SVG/1.1/DTD/svg11.dtd" [
	<!ENTITY ns_svg "http://www.w3.org/2000/svg">
	<!ENTITY ns_xlink "http://www.w3.org/1999/xlink">
]>
<svg  version="1.1" id="Version_1.0" xmlns="&ns_svg;" xmlns:xlink="&ns_xlink;" width="386" height="242"
	 viewBox="3.5 74.5 386 242" overflow="visible" enable-background="new 3.5 74.5 386 242" xml:space="preserve">
<g id="main" transform="translate(65 54)">
	<text transform="matrix(1 0 0 1 187.3281 114)" font-family="'Arial-BoldMT'" font-size="35">R</text>
	<circle fill="none" stroke="#000000" stroke-width="3" cx="14.251" cy="64.625" r="33.25"/>
	<path fill="none" stroke="#000000" stroke-width="3" d="M217.63,114.011c40.661,28.827,69.698,71.587,76.621,131.739"/>
	<path fill="none" stroke="#000000" stroke-width="3" d="M180.804,92.919c1.219,0.559,2.432,1.127,3.639,1.704"/>
	<path fill="none" stroke="#000000" stroke-width="3" d="M49.251,64.625c45.819,1.384,91.863,10.092,131.553,28.294"/>
	<line fill="none" stroke="#000000" stroke-width="3" x1="262.434" y1="222.527" x2="294.571" y2="246.393"/>
	<line fill="none" stroke="#000000" stroke-width="3" x1="292.98" y1="246.393" x2="319.704" y2="221.574"/>
</g>
<g id="example" display="none">
	<g id="varAe_1_" display="inline">
		<g id="frame_2_">
			
				<rect id="_x3C_path_x3E__2_" x="58.199" y="107.96" fill="#80E0FF" stroke="#969696" stroke-width="2" width="41.261" height="27.507"/>
		</g>
		<g id="main_1_">
			<line fill="none" stroke="#969696" stroke-width="2" x1="58.247" y1="135.467" x2="99.394" y2="107.96"/>
			<path fill="none" stroke="#969696" stroke-width="2" d="M71.943,116.413c-6.876,0-6.876,10.604,0,10.604h13.753
				c6.877,0,6.877-10.604,0-10.604H71.943z"/>
		</g>
		<text transform="matrix(1 0 0 1 75.7598 103.5332)" fill="#969696" font-family="'ArialMT'" font-size="12">X</text>
	</g>
</g>
<g id="template" display="none">
	<g id="varA" transform="translate(92 -35) translate(2 2)" display="inline">
		<rect x="-28.749" y="138.5" fill="none" stroke="#000000" stroke-width="2" width="28" height="28"/>
		<text transform="matrix(1 0 0 1 -23.501 161.25)" font-family="'ArialMT'" font-size="26.2487">A</text>
	</g>
	<g id="point_3" display="inline">
		<text transform="matrix(1 0 0 1 270 124.4995)" font-family="'ArialMT'" font-size="24.9976">PT. 3</text>
		<line fill="none" stroke="#000000" stroke-width="2" x1="295.531" y1="150.522" x2="315.555" y2="126.206"/>
		<polygon stroke="#000000" stroke-width="2" points="287.928,159.56 293.41,139.137 306.919,150.261 		"/>
	</g>
	<g id="point_2" display="inline">
		<line fill="none" stroke="#000000" stroke-width="2" x1="340.001" y1="306.75" x2="308.501" y2="306.75"/>
		<text transform="matrix(1 0 0 1 227.999 266.5)" font-family="'ArialMT'" font-size="26.2461">PT. 2</text>
		<line fill="none" stroke="#000000" stroke-width="2" x1="309.867" y1="306.982" x2="273.5" y2="271.75"/>
		<polygon stroke="#000000" stroke-width="2" points="352.015,304.764 332.765,313.514 332.765,296.014 		"/>
	</g>
	<g id="point_1" display="inline">
		<g id="_x3C_group_x3E_" transform="translate(63 6)">
			<text transform="matrix(1 0 0 1 5.749 262.25)" font-family="'ArialMT'" font-size="26.2461">PT. 1</text>
			<text transform="matrix(1 0 0 1 -47.751 288.25)" font-family="'ArialMT'" font-size="26.2461">(CENTER PT.)</text>
		</g>
		<line fill="none" stroke="#000000" stroke-width="2" x1="74.001" y1="170.25" x2="74.001" y2="219.25"/>
		<line fill="none" stroke="#000000" stroke-width="2" x1="73.829" y1="218.006" x2="91.501" y2="243.75"/>
		<polygon stroke="#000000" stroke-width="2" points="74.001,163.25 82.751,182.5 65.251,182.5 		"/>
	</g>
</g>
</svg>
