<?xml version="1.0" encoding="utf-8"?>
<!-- APP-6(D)(2) Generator: Adobe Illustrator 12.0.1, SVG Export Plug-In . SVG Version: 6.00 Build 51448)  -->
<!DOCTYPE svg PUBLIC "-//W3C//DTD SVG 1.1//EN" "http://www.w3.org/Graphics/SVG/1.1/DTD/svg11.dtd" [
	<!ENTITY ns_svg "http://www.w3.org/2000/svg">
	<!ENTITY ns_xlink "http://www.w3.org/1999/xlink">
]>
<svg  version="1.1" id="Version_1.2" xmlns="&ns_svg;" xmlns:xlink="&ns_xlink;" width="400" height="400" viewBox="0 0 400 400"
	 overflow="visible" enable-background="new 0 0 400 400" xml:space="preserve">
<g id="main">
	<g>
		<g>
			<g>
				<line fill="none" stroke="#000000" stroke-width="5" x1="109.5" y1="183.445" x2="381.872" y2="183.445"/>
				<g>
					<path d="M344.188,207.443c-0.818-1.162-0.439-2.709,0.846-3.451l35.578-20.547l-35.578-20.547
						c-1.285-0.742-1.664-2.29-0.846-3.452c0.817-1.162,2.533-1.499,3.806-0.767l39.229,22.656c0.794,0.459,1.276,1.255,1.276,2.109
						s-0.482,1.65-1.276,2.109l-39.229,22.657c-0.458,0.265-0.973,0.392-1.479,0.392
						C345.608,208.602,344.716,208.191,344.188,207.443z"/>
				</g>
			</g>
		</g>
	</g>
	
		<g transform="translate(-1.77778 -49.3333) translate(41 71.5) rotate(9.0906 200 200) rotate(1.11612 199.922 199.512) translate(-3.53441 -2.07318) translate(-0.043633 2.26581)">
		<polygon fill="#FFFFFF" stroke="#000000" stroke-width="4" points="146.928,185.737 142.067,156.465 208.793,174.151 
			204.119,146.004 		"/>
	</g>
</g>
<g id="template" display="none">
	<g id="varA" display="inline">
		<rect x="14.5" y="148.945" fill="#FFFFFF" stroke="#000000" stroke-width="4.7801" width="85" height="69"/>
		<rect x="34.5" y="162.443" fill="#FFFFFF" stroke="#000000" stroke-width="5" width="43" height="43"/>
		<text transform="matrix(1 0 0 1 43 196.9433)" font-family="sans-serif" font-size="36">A</text>
	</g>
	<g id="varW1" display="inline">
		<rect x="247.5" y="213.498" fill="#FFFFFF" stroke="#000000" stroke-width="6.028" width="62.5" height="43"/>
		<text transform="matrix(1 0 0 1 256 247.998)" font-family="sans-serif" font-size="36">W1</text>
	</g>
	<g id="varW" display="inline">
		<text transform="matrix(1 0 0 1 224.5 247.998)" font-family="sans-serif" font-size="36">-</text>
		<rect x="173" y="213.498" fill="#FFFFFF" stroke="#000000" stroke-width="5" width="43" height="43"/>
		<text transform="matrix(1 0 0 1 177.5 247.998)" font-family="sans-serif" font-size="36">W</text>
	</g>
	<g id="varT" display="inline">
		<rect x="277.5" y="161.945" fill="#FFFFFF" stroke="#000000" stroke-width="5" width="43" height="43"/>
		<text transform="matrix(1 0 0 1 286 196.4453)" font-family="sans-serif" font-size="36">T</text>
	</g>
	<g id="varT_2_" display="inline">
		<rect x="130.5" y="160.5" fill="#FFFFFF" stroke="#000000" stroke-width="5" width="43" height="43"/>
		<text transform="matrix(1 0 0 1 139 195.0005)" font-family="sans-serif" font-size="36">N</text>
	</g>
	<g id="points" display="inline">
		<g>
			<text transform="matrix(1 0 0 1 96.5 290.6279)" font-family="sans-serif" font-size="24">PT 2</text>
			<g>
				<g>
					<line fill="none" stroke="#000000" stroke-width="5" x1="112.5" y1="212.945" x2="112.5" y2="270.5"/>
					<path d="M108.657,204.09c-1.874,6.2-3.598,10.229-5.594,15.202h18.917c-0.846-1.78-3.723-9.002-5.594-15.202
						c-2.005-6.635-3.376-12.652-3.865-16.556C112.031,191.437,110.66,197.455,108.657,204.09z"/>
				</g>
			</g>
		</g>
		<g>
			<text transform="matrix(1 0 0 1 358.5 288.8506)" font-family="sans-serif" font-size="24">PT 1</text>
			<g>
				<g>
					<line fill="none" stroke="#000000" stroke-width="5" x1="385.5" y1="209.945" x2="385.5" y2="267.5"/>
					<path d="M381.656,201.09c-1.873,6.2-3.601,10.229-5.595,15.202h18.916c-0.848-1.78-3.724-9.002-5.596-15.202
						c-2.004-6.635-3.376-12.652-3.865-16.556C385.031,188.437,383.66,194.455,381.656,201.09z"/>
				</g>
			</g>
		</g>
	</g>
</g>
<g id="example" display="none">
	<g id="varAe" display="inline">
		<polygon fill="none" stroke="#000000" stroke-width="3" stroke-linecap="round" stroke-miterlimit="8" points="20.164,156.998 
			20.164,215.074 104.307,215.074 104.307,156.998 		"/>
		<polygon points="62.38,185.962 83.414,200.518 83.414,171.405 		"/>
		<polygon points="62.38,185.962 41.199,200.518 41.199,171.405 		"/>
	</g>
	<g display="inline">
		<rect x="267.232" y="163.603" fill="#FFFFFF" width="76.535" height="39.685"/>
		<text id="varTe" transform="matrix(1 0 0 1 267 192.4453)" font-family="sans-serif" font-size="28">AVON</text>
	</g>
	<g display="inline">
		<rect x="121.525" y="169.729" fill="#FFFFFF" width="53.855" height="28.244"/>
		<text id="varTe_3_" transform="matrix(1 0 0 1 124.7026 192.8515)" font-family="sans-serif" font-size="28">ENY</text>
	</g>
	<text id="varW1e" transform="matrix(1 0 0 1 177.5 241.998)" display="inline" font-family="sans-serif" font-size="18">120300ZOCT08</text>
	<text id="varWe" transform="matrix(1 0 0 1 177.5 223.998)" display="inline" font-family="sans-serif" font-size="18">080400ZOCT08 -</text>
</g>
</svg>
