<?xml version="1.0" encoding="utf-8"?>
<!--  APP-6(D)(2) Generator: Adobe Illustrator 12.0.1, SVG Export Plug-In . SVG Version: 6.00 Build 51448)  -->
<!DOCTYPE svg PUBLIC "-//W3C//DTD SVG 1.1//EN" "http://www.w3.org/Graphics/SVG/1.1/DTD/svg11.dtd" [
	<!ENTITY ns_svg "http://www.w3.org/2000/svg">
	<!ENTITY ns_xlink "http://www.w3.org/1999/xlink">
]>
<svg  version="1.1" id="Version_1.2" xmlns="&ns_svg;" xmlns:xlink="&ns_xlink;" width="372" height="296"
	 viewBox="-29.5 77.167 372 296" overflow="visible" enable-background="new -29.5 77.167 372 296" xml:space="preserve">
<g id="Main_2_">
	<g id="Main_1_">
		<g id="XMLID_6_" opacity="0.75">
			<g>
				<path fill="#338888" d="M331.691,125.165l-32.83,54.64l-0.141-0.08c-30.1-16.34-64.35-28.26-104.38-28.26
					c-39.81,0-76.62,10.58-107.88,26.3l-30.11-51.28c36.49-24.92,85.16-40.12,138.62-40.12c52.311,0,100.041,14.56,136.261,38.52
					L331.691,125.165z"/>
			</g>
			<g>
				<path fill="none" stroke="#33888B" stroke-width="5" d="M55.932,126.765c0.14-0.1,0.28-0.19,0.42-0.28
					c36.49-24.92,85.16-40.12,138.621-40.12c52.31,0,100.039,14.56,136.26,38.52"/>
				<path fill="none" stroke="#33888B" stroke-width="5" d="M85.422,178.285c0.34-0.18,0.69-0.35,1.04-0.52
					c31.26-15.72,68.07-26.3,107.88-26.3c40.03,0,74.28,11.92,104.381,28.26"/>
				<polyline fill="none" stroke="#33888B" stroke-width="5" points="332.722,123.455 331.691,125.165 298.861,179.805 
					297.723,181.705 				"/>
				<polyline fill="none" stroke="#33888B" stroke-width="5" points="54.972,124.125 56.352,126.485 86.462,177.765 87.642,179.785 
									"/>
			</g>
		</g>
	</g>
	<g id="XMLID_1_">
		<g>
			<path fill="none" stroke="#33888B" stroke-width="5" d="M55.932,126.765c0.14-0.1,0.28-0.19,0.42-0.28
				c36.49-24.92,85.16-40.12,138.621-40.12c52.31,0,100.039,14.56,136.26,38.52"/>
			<path fill="none" stroke="#33888B" stroke-width="5" d="M85.422,178.285c0.34-0.18,0.69-0.35,1.04-0.52
				c31.26-15.72,68.07-26.3,107.88-26.3c40.03,0,74.28,11.92,104.381,28.26"/>
			<polyline fill="none" stroke="#33888B" stroke-width="5" points="332.722,123.455 331.691,125.165 298.861,179.805 
				297.723,181.705 			"/>
			<polyline fill="none" stroke="#33888B" stroke-width="5" points="54.972,124.125 56.352,126.485 86.462,177.765 87.642,179.785 
							"/>
		</g>
	</g>
</g>
<g id="Example" display="none">
	<g id="Own_Ship_example" display="inline">
		<circle fill="none" stroke="#ACAEAF" stroke-width="3" cx="195.667" cy="353.667" r="14"/>
		<line fill="none" stroke="#ACAEAF" stroke-width="3" x1="195.667" y1="367.667" x2="195.667" y2="339.667"/>
		<line fill="none" stroke="#ACAEAF" stroke-width="3" x1="181.667" y1="353.667" x2="209.667" y2="353.667"/>
	</g>
	<rect x="174.5" y="95.167" display="inline" fill="none" width="42.333" height="21.333"/>
	<text transform="matrix(1 0 0 1 184.9521 110.7861)" display="inline" font-family="sans-serif" font-size="22">FF</text>
</g>
<g id="Template">
	
		<line fill="none" stroke="#000000" stroke-width="2" stroke-miterlimit="2" stroke-dasharray="8" x1="333.253" y1="125.167" x2="194.167" y2="354.833"/>
	
		<line fill="none" stroke="#000000" stroke-width="2" stroke-linejoin="bevel" stroke-miterlimit="10" stroke-dasharray="8" x1="195.107" y1="354.5" x2="195.107" y2="83.833"/>
	
		<line fill="none" stroke="#000000" stroke-width="2" stroke-linejoin="bevel" stroke-miterlimit="10" stroke-dasharray="8" x1="46.834" y1="151.404" x2="195.104" y2="152.5"/>
	
		<line fill="none" stroke="#000000" stroke-width="2" stroke-linejoin="bevel" stroke-miterlimit="10" stroke-dasharray="8" x1="-14.817" y1="83.282" x2="195.104" y2="84.832"/>
	
		<line fill="none" stroke="#000000" stroke-width="2" stroke-linejoin="bevel" stroke-miterlimit="10" stroke-dasharray="8" x1="-13.559" y1="345.167" x2="-13.559" y2="85.833"/>
	
		<line fill="none" stroke="#000000" stroke-width="2" stroke-linejoin="bevel" stroke-miterlimit="10" stroke-dasharray="8" x1="47.774" y1="342.106" x2="47.774" y2="151.5"/>
	<polygon stroke="#000000" stroke-width="2" stroke-miterlimit="10" points="-5.166,100.5 -13.805,100.56 -22.443,100.62 
		-18.181,92.313 -13.919,84.007 -9.543,92.253 	"/>
	<polygon stroke="#000000" stroke-width="2" stroke-miterlimit="10" points="277.127,215.866 270.842,215.91 264.559,215.952 
		267.663,210.638 270.77,205.324 273.947,210.596 	"/>
	<polygon stroke="#000000" stroke-width="2" stroke-miterlimit="10" points="39.12,335.056 47.758,335.007 56.396,334.959 
		52.124,343.26 47.851,351.562 43.485,343.308 	"/>
	<polygon stroke="#000000" stroke-width="2" stroke-miterlimit="10" points="-22.547,334.722 -13.908,334.673 -5.27,334.625 
		-9.543,342.926 -13.816,351.228 -18.181,342.974 	"/>
	<path fill="none" stroke="#000000" stroke-width="2" stroke-linecap="round" stroke-dasharray="8" d="M196.75,192.234
		c12.836,0.318,27.52,2.296,42.73,6.766c15.131,4.445,27.379,10.619,37.802,17.208"/>
	<polygon stroke="#000000" stroke-width="2" stroke-miterlimit="10" points="55.834,167.5 47.195,167.56 38.557,167.619 
		42.819,159.313 47.081,151.007 51.457,159.254 	"/>
	<rect x="-18.833" y="196.5" fill="none" width="50.667" height="28.667"/>
	<text transform="matrix(1 0 0 1 -6.7666 205.0195)" font-family="sans-serif" font-size="12">STOP </text>
	<text transform="matrix(1 0 0 1 -11.1758 219.4199)" font-family="sans-serif" font-size="12">RANGE</text>
	<rect x="47.5" y="235.834" fill="none" width="48.333" height="28"/>
	<text transform="matrix(1 0 0 1 55.8447 244.3535)" font-family="sans-serif" font-size="12">START </text>
	<text transform="matrix(1 0 0 1 53.9902 258.7539)" font-family="sans-serif" font-size="12">RANGE</text>
	<rect x="135.167" y="258.581" fill="none" width="59" height="30"/>
	<text transform="matrix(1 0 0 1 144.4648 267.1006)" font-family="sans-serif" font-size="12">SEARCH</text>
	<text transform="matrix(1 0 0 1 153.1768 281.501)" font-family="sans-serif" font-size="12">AXIS</text>
	<rect x="206.167" y="204.167" fill="none" width="57.333" height="39.667"/>
	<text transform="matrix(1 0 0 1 221.5674 212.6865)" font-family="sans-serif" font-size="12">STOP </text>
	<text transform="matrix(1 0 0 1 211.4336 227.0869)" font-family="sans-serif" font-size="12">RELATIVE </text>
	<text transform="matrix(1 0 0 1 212.4717 241.4873)" font-family="sans-serif" font-size="12">BEARING</text>
	
		<line fill="none" stroke="#000000" stroke-width="2" stroke-linejoin="bevel" stroke-miterlimit="10" stroke-dasharray="8" x1="-13.501" y1="351.956" x2="195.438" y2="353.5"/>
	<rect x="261.5" y="311.834" fill="none" width="48.334" height="28"/>
	<text transform="matrix(1 0 0 1 263.293 320.3535)" font-family="sans-serif" font-size="12">ANCHOR </text>
	<text transform="matrix(1 0 0 1 269.9766 334.7539)" font-family="sans-serif" font-size="12">POINT</text>
	<line stroke="#050505" stroke-width="3" x1="265.167" y1="324.5" x2="205.167" y2="349.167"/>
	<polygon stroke="#000000" stroke-width="2" stroke-miterlimit="10" points="209.117,339.073 211.955,347.231 214.791,355.392 
		205.557,354.03 196.318,352.668 202.719,345.87 	"/>
</g>
</svg>
