<?xml version="1.0" encoding="utf-8"?>
<!-- Generator: APP-6(D)(2) Adobe Illustrator 12.0.1, SVG Export Plug-In . SVG Version: 6.00 Build 51448)  -->
<!DOCTYPE svg PUBLIC "-//W3C//DTD SVG 1.1//EN" "http://www.w3.org/Graphics/SVG/1.1/DTD/svg11.dtd" [
	<!ENTITY ns_svg "http://www.w3.org/2000/svg">
	<!ENTITY ns_xlink "http://www.w3.org/1999/xlink">
]>
<svg  version="1.1" id="Version_1.2" xmlns="&ns_svg;" xmlns:xlink="&ns_xlink;" width="344" height="316.5"
	 viewBox="-107.5 172.5 344 316.5" overflow="visible" enable-background="new -107.5 172.5 344 316.5" xml:space="preserve">
<g id="main">
	<text transform="matrix(1 0 0 1 -14.2861 289.1914)" font-family="'Arial-BoldMT'" font-size="33">P</text>
	<line fill="none" stroke="#000000" stroke-width="4" x1="-28.896" y1="281.248" x2="-91.646" y2="281.248"/>
	<line fill="none" stroke="#000000" stroke-width="4" x1="166.5" y1="281.248" x2="24.768" y2="281.248"/>
	<g>
		<path fill="none" stroke="#000000" stroke-width="4" d="M166.5,394.635c31.336,0,56.693-25.357,56.693-56.693"/>
		<path fill="none" stroke="#000000" stroke-width="4" d="M166.5,281.248c31.339,0,56.693,25.355,56.693,56.693"/>
	</g>
	<line fill="none" stroke="#000000" stroke-width="4" x1="165.5" y1="338.5" x2="165.5" y2="452.5"/>
	<polyline fill="none" stroke="#000000" stroke-width="3" stroke-linecap="square" points="185.157,371.815 167.416,393.926 
		189.525,411.666 	"/>
</g>
<g id="example" display="none">
	
		<polyline id="_x3C_path_x3E_" display="inline" fill="#FF8080" stroke="#969696" stroke-width="2" stroke-linecap="square" points="
		81.46,437.153 123.98,394.634 81.46,352.114 38.941,394.634 81.46,437.153 	"/>
</g>
<g id="template" display="none">
	<g display="inline">
		<text transform="matrix(1 0 0 1 -98.8506 399.835)" font-family="'ArialMT'" font-size="25.8104">PT. 1</text>
		<g>
			<polygon stroke="#000000" stroke-width="2" points="-91.5,285.738 -79.689,314.084 -103.311,314.084 			"/>
			<line fill="none" stroke="#000000" stroke-width="2" x1="-91.5" y1="307" x2="-91.5" y2="377.863"/>
		</g>
	</g>
	<g display="inline">
		<text transform="matrix(1 0 0 1 171.1494 203.335)" font-family="'ArialMT'" font-size="25.8104">PT. 2</text>
		<g>
			<polygon stroke="#000000" stroke-width="2" points="167.48,276.834 155.67,248.488 179.291,248.488 			"/>
			<line fill="none" stroke="#000000" stroke-width="2" x1="167.48" y1="255.572" x2="167.48" y2="184.709"/>
		</g>
	</g>
	<g display="inline">
		<text transform="matrix(1 0 0 1 96.1689 482.8643)" font-family="'ArialMT'" font-size="25.8104">PT. 3</text>
		<g>
			<polygon stroke="#000000" stroke-width="2" points="160.036,400.725 147.495,428.755 131.302,411.557 			"/>
			<line fill="none" stroke="#000000" stroke-width="2" x1="144.556" y1="415.3" x2="92.963" y2="463.877"/>
		</g>
	</g>
</g>
</svg>
