<?xml version="1.0" encoding="utf-8"?>
<!-- Generator: APP-6(D)(2) Adobe Illustrator 12.0.1, SVG Export Plug-In . SVG Version: 6.00 Build 51448)  -->
<!DOCTYPE svg PUBLIC "-//W3C//DTD SVG 1.1//EN" "http://www.w3.org/Graphics/SVG/1.1/DTD/svg11.dtd" [
	<!ENTITY ns_svg "http://www.w3.org/2000/svg">
	<!ENTITY ns_xlink "http://www.w3.org/1999/xlink">
]>
<svg  version="1.1" id="Version_1.2" xmlns="&ns_svg;" xmlns:xlink="&ns_xlink;" width="297" height="282"
	 viewBox="49.5 56.25 297 282" overflow="visible" enable-background="new 49.5 56.25 297 282" xml:space="preserve">
<g id="main">
	<path fill="none" stroke="#000000" stroke-width="2" d="M251.5,128.658c130.815,6.831,107.586,138.75,7.5,138.75"/>
	<line fill="none" stroke="#000000" stroke-width="2" x1="68.417" y1="267.3" x2="202.5" y2="267.376"/>
	<line fill="none" stroke="#000000" stroke-width="2" x1="67.75" y1="128.658" x2="252.75" y2="128.658"/>
	<line fill="none" stroke="#000000" stroke-width="2" x1="87.75" y1="246.158" x2="68.292" y2="268.05"/>
	<line fill="none" stroke="#000000" stroke-width="2" x1="87.75" y1="284.908" x2="68.042" y2="266.55"/>
	<rect x="202.667" y="259.167" fill="none" width="53" height="15.999"/>
	<text transform="matrix(1 0 0 1 208.0566 272.7715)" font-family="'Arial-BoldMT'" font-size="19">DEM</text>
</g>
<g id="template_1_" display="none">
	<g id="varA" transform="translate(135 114)" display="inline">
		<rect x="153.25" y="67.808" fill="#FFFFFF" stroke="#000000" stroke-width="2" width="31" height="29.228"/>
		<text transform="matrix(1.0607 0 0 1 158.0664 92.4912)" font-family="sans-serif" font-size="29.2271">A</text>
	</g>
	<g id="template" display="inline">
		<g>
			<line fill="none" stroke="#000000" stroke-width="2" x1="69" y1="279" x2="69" y2="300.25"/>
			<line fill="none" stroke="#000000" stroke-width="2" x1="68.505" y1="299.277" x2="86.5" y2="315.25"/>
			<polygon stroke="#000000" stroke-width="2" points="69,270.25 75.25,281.5 62.75,281.5 			"/>
			<text transform="matrix(1 0 0 1 70.249 330.249)" font-family="sans-serif" font-size="15">PT. 1</text>
		</g>
		<g>
			<line fill="none" stroke="#000000" stroke-width="2" x1="255.165" y1="281.5" x2="255.165" y2="302.75"/>
			<line fill="none" stroke="#000000" stroke-width="2" x1="255.66" y1="301.777" x2="237.665" y2="317.75"/>
			<polygon stroke="#000000" stroke-width="2" points="255.165,272.75 248.915,284 261.415,284 			"/>
			<text transform="matrix(1 0 0 1 212.749 332.749)" font-family="sans-serif" font-size="15">PT. 2</text>
		</g>
		<g>
			<line fill="none" stroke="#000000" stroke-width="2" x1="253.415" y1="113.836" x2="253.415" y2="92.586"/>
			<line fill="none" stroke="#000000" stroke-width="2" x1="253.91" y1="93.559" x2="235.915" y2="77.586"/>
			<polygon stroke="#000000" stroke-width="2" points="253.415,122.587 247.165,111.337 259.665,111.337 			"/>
			<text transform="matrix(1 0 0 1 212.249 71.749)" font-family="sans-serif" font-size="15">PT. 3</text>
		</g>
		<g>
			<line fill="none" stroke="#000000" stroke-width="2" x1="66.5" y1="114.836" x2="66.5" y2="93.586"/>
			<line fill="none" stroke="#000000" stroke-width="2" x1="66.005" y1="94.559" x2="84" y2="78.586"/>
			<polygon stroke="#000000" stroke-width="2" points="66.5,123.587 72.75,112.337 60.25,112.337 			"/>
			<text transform="matrix(1 0 0 1 62.749 72.749)" font-family="sans-serif" font-size="15">PT. 4</text>
		</g>
	</g>
</g>
<g id="example" display="none">
	<g id="frame" display="inline">
		<path fill="#80E0FF" stroke="#000000" stroke-width="2" d="M288.057,211.157c0-23.385,7.826-42.341,17.48-42.341
			s17.479,18.956,17.479,42.341"/>
	</g>
	<g id="main_1_" display="inline">
		<text transform="matrix(1 0 0 1 293.2119 195.5107)" font-family="sans-serif" font-size="15.8572">F/B</text>
	</g>
</g>
</svg>
