<?xml version="1.0" encoding="utf-8"?>
<!-- Generator: APP-6(D)(2) Adobe Illustrator 12.0.1, SVG Export Plug-In . SVG Version: 6.00 Build 51448)  -->
<!DOCTYPE svg PUBLIC "-//W3C//DTD SVG 1.1//EN" "http://www.w3.org/Graphics/SVG/1.1/DTD/svg11.dtd" [
	<!ENTITY ns_svg "http://www.w3.org/2000/svg">
	<!ENTITY ns_xlink "http://www.w3.org/1999/xlink">
]>
<svg  version="1.1" id="Version_1.2" xmlns="&ns_svg;" xmlns:xlink="&ns_xlink;" width="612" height="792" viewBox="0 0 612 792"
	 overflow="visible" enable-background="new 0 0 612 792" xml:space="preserve">
<g id="main" transform="translate(-240 -280) scale(2 2)">
	<circle fill="#00FF00" stroke="#00FF00" stroke-width="2" cx="270.34" cy="327.333" r="9.449"/>
	<line fill="#00FF00" stroke="#00FF00" stroke-width="5" x1="264.504" y1="319.969" x2="255.75" y2="309.408"/>
	<line fill="#00FF00" stroke="#00FF00" stroke-width="5" x1="275.621" y1="319.691" x2="284.097" y2="309.408"/>
</g>
<g id="template" transform="translate(60 181)" display="none">
	<text transform="matrix(1 0 0 1 4 288.9111)" display="inline" font-family="'ArialMT'" font-size="24">CENTER</text>
	<text transform="matrix(1 0 0 1 20 312.9111)" display="inline" font-family="'ArialMT'" font-size="24">POINT</text>
	<line display="inline" fill="none" stroke="#808080" stroke-width="5" x1="102" y1="296.689" x2="222" y2="228.689"/>
	<polygon display="inline" fill="#808080" stroke="#808080" stroke-width="2" points="245.292,215.873 221.548,250.575 
		203.4,219.485 	"/>
</g>
<g id="main_2_" transform="translate(-240 -280) scale(2 2)">
	<circle fill="#00FF00" stroke="#00FF00" stroke-width="2" cx="234.907" cy="327.333" r="9.449"/>
	<line fill="#00FF00" stroke="#00FF00" stroke-width="5" x1="229.071" y1="319.969" x2="220.317" y2="309.408"/>
	<line fill="#00FF00" stroke="#00FF00" stroke-width="5" x1="240.187" y1="319.69" x2="248.663" y2="309.408"/>
</g>
<g id="main_3_" transform="translate(-240 -280) scale(2 2)">
	<circle fill="#00FF00" stroke="#00FF00" stroke-width="2" cx="305.773" cy="327.334" r="9.449"/>
	<line fill="#00FF00" stroke="#00FF00" stroke-width="5" x1="299.937" y1="319.969" x2="291.183" y2="309.409"/>
	<line fill="#00FF00" stroke="#00FF00" stroke-width="5" x1="311.053" y1="319.691" x2="319.529" y2="309.409"/>
</g>
</svg>
