<?xml version="1.0" encoding="utf-8"?>
<!-- Generator: APP-6(D)(2) Adobe Illustrator 12.0.1, SVG Export Plug-In . SVG Version: 6.00 Build 51448)  -->
<!DOCTYPE svg PUBLIC "-//W3C//DTD SVG 1.1//EN" "http://www.w3.org/Graphics/SVG/1.1/DTD/svg11.dtd" [
	<!ENTITY ns_svg "http://www.w3.org/2000/svg">
	<!ENTITY ns_xlink "http://www.w3.org/1999/xlink">
]>
<svg  version="1.1" id="Version_1.2" xmlns="&ns_svg;" xmlns:xlink="&ns_xlink;" width="612" height="792" viewBox="0 0 612 792"
	 overflow="visible" enable-background="new 0 0 612 792" xml:space="preserve">
<g id="template" transform="translate(60 181)" display="none">
	<text transform="matrix(1 0 0 1 38.876 272.2959)" display="inline" font-family="'ArialMT'" font-size="24">CENTER</text>
	<text transform="matrix(1 0 0 1 54.876 296.2959)" display="inline" font-family="'ArialMT'" font-size="24">POINT</text>
	<line display="inline" fill="none" stroke="#808080" stroke-width="5" x1="142.222" y1="274.043" x2="220.208" y2="229.852"/>
	<polygon display="inline" fill="#808080" stroke="#808080" stroke-width="2" points="243.5,217.035 219.756,251.737 
		201.608,220.647 	"/>
</g>
<circle fill="#00FF00" stroke="#00FF00" stroke-width="2" cx="195.727" cy="381.431" r="31.392"/>
<line fill="#00FF00" stroke="#00FF00" stroke-width="5" x1="176.96" y1="356.964" x2="147.876" y2="321.878"/>
<line fill="#00FF00" stroke="#00FF00" stroke-width="5" x1="213.893" y1="356.041" x2="242.053" y2="321.878"/>
<g>
	<circle fill="#00FF00" stroke="#00FF00" stroke-width="2" cx="423.121" cy="381.431" r="31.392"/>
	<line fill="#00FF00" stroke="#00FF00" stroke-width="5" x1="403.731" y1="356.964" x2="374.647" y2="321.878"/>
	<line fill="#00FF00" stroke="#00FF00" stroke-width="5" x1="440.664" y1="356.041" x2="468.824" y2="321.878"/>
</g>
<g>
	<path fill="#00FF00" stroke="#00FF00" stroke-width="2" d="M308.345,348.77c18.01,0,32.606,14.595,32.606,32.599
		s-14.599,32.603-32.606,32.603c-18.004,0-32.595-14.599-32.595-32.603C275.749,363.365,290.34,348.77,308.345,348.77z"/>
	<polyline fill="#FFFFFF" stroke="#00FF00" stroke-width="5" points="308.345,413.972 308.345,452.747 319.211,434.216 	"/>
</g>
</svg>
