<?xml version="1.0" encoding="utf-8"?>
<!-- Generator: APP-6(D)(2) Adobe Illustrator 12.0.1, SVG Export Plug-In . SVG Version: 6.00 Build 51448)  -->
<!DOCTYPE svg PUBLIC "-//W3C//DTD SVG 1.1//EN" "http://www.w3.org/Graphics/SVG/1.1/DTD/svg11.dtd" [
	<!ENTITY ns_svg "http://www.w3.org/2000/svg">
	<!ENTITY ns_xlink "http://www.w3.org/1999/xlink">
]>
<svg  version="1.1" id="Version_1.2" xmlns="&ns_svg;" xmlns:xlink="&ns_xlink;" width="612" height="792" viewBox="0 0 612 792"
	 overflow="visible" enable-background="new 0 0 612 792" xml:space="preserve">
<g id="template" transform="translate(60 181)" display="none">
	<text transform="matrix(1 0 0 1 38.876 272.2959)" display="inline" font-family="'ArialMT'" font-size="24">CENTER</text>
	<text transform="matrix(1 0 0 1 54.876 296.2959)" display="inline" font-family="'ArialMT'" font-size="24">POINT</text>
	<line display="inline" fill="none" stroke="#808080" stroke-width="5" x1="142.222" y1="274.043" x2="220.208" y2="229.852"/>
	<polygon display="inline" fill="#808080" stroke="#808080" stroke-width="2" points="243.5,217.035 219.756,251.737 
		201.608,220.647 	"/>
</g>
<g id="main_2_">
	<circle fill="#00FF00" stroke="#00FF00" stroke-width="2" cx="199.588" cy="381.431" r="31.392"/>
	<line fill="#00FF00" stroke="#00FF00" stroke-width="5" x1="180.198" y1="356.964" x2="151.114" y2="321.878"/>
	<line fill="#00FF00" stroke="#00FF00" stroke-width="5" x1="217.131" y1="356.041" x2="245.291" y2="321.878"/>
	
		<line fill="#00FF00" stroke="#00FF00" stroke-width="5" stroke-dasharray="15 15" x1="230.98" y1="381.431" x2="256.217" y2="381.517"/>
	<polygon fill="#00FF00" stroke="#00FF00" points="254.515,387.282 264.5,381.563 254.554,375.774 	"/>
</g>
<g id="main_3_">
	<circle fill="#00FF00" stroke="#00FF00" stroke-width="2" cx="423.352" cy="381.431" r="31.392"/>
	<line fill="#00FF00" stroke="#00FF00" stroke-width="5" x1="403.962" y1="356.964" x2="374.878" y2="321.878"/>
	<line fill="#00FF00" stroke="#00FF00" stroke-width="5" x1="440.895" y1="356.041" x2="469.055" y2="321.878"/>
	
		<line fill="#00FF00" stroke="#00FF00" stroke-width="5" stroke-dasharray="15 15" x1="454.744" y1="381.431" x2="479.98" y2="381.517"/>
	<polygon fill="#00FF00" stroke="#00FF00" points="478.278,387.282 488.264,381.563 478.317,375.774 	"/>
</g>
<g id="main_4_" transform="translate(-240 -280) scale(2 2)">
	<path fill="#00FF00" stroke="#00FF00" stroke-width="2" d="M280.488,313.536c9.138,0,16.551,7.409,16.551,16.549
		c0,9.146-7.413,16.547-16.551,16.547c-9.14,0-16.55-7.401-16.55-16.547C263.94,320.945,271.349,313.536,280.488,313.536z"/>
	<polyline fill="#FFFFFF" stroke="#00FF00" stroke-width="5" points="284.059,346.15 295.418,358.861 306.776,346.15 	"/>
	<polyline fill="#FFFFFF" stroke="#00FF00" stroke-width="5" points="275.863,346.15 265.645,358.861 255.748,346.15 	"/>
</g>
</svg>
