<?xml version="1.0" encoding="utf-8"?>
<!-- Generator: APP-6(D)(2) Adobe Illustrator 12.0.1, SVG Export Plug-In . SVG Version: 6.00 Build 51448)  -->
<!DOCTYPE svg PUBLIC "-//W3C//DTD SVG 1.1//EN" "http://www.w3.org/Graphics/SVG/1.1/DTD/svg11.dtd" [
	<!ENTITY ns_svg "http://www.w3.org/2000/svg">
	<!ENTITY ns_xlink "http://www.w3.org/1999/xlink">
]>
<svg  version="1.1" id="Version_1.2" xmlns="&ns_svg;" xmlns:xlink="&ns_xlink;" width="612" height="792" viewBox="0 0 612 792"
	 overflow="visible" enable-background="new 0 0 612 792" xml:space="preserve">
<g id="template" transform="translate(60 181)" display="none">
	<text transform="matrix(1 0 0 1 38.876 272.2959)" display="inline" font-family="'ArialMT'" font-size="24">CENTER</text>
	<text transform="matrix(1 0 0 1 54.876 296.2959)" display="inline" font-family="'ArialMT'" font-size="24">POINT</text>
	<line display="inline" fill="none" stroke="#808080" stroke-width="5" x1="142.222" y1="274.043" x2="220.208" y2="229.852"/>
	<polygon display="inline" fill="#808080" stroke="#808080" stroke-width="2" points="243.5,217.035 219.756,251.737 
		201.608,220.647 	"/>
</g>
<circle fill="#00FF00" stroke="#00FF00" stroke-width="2" cx="195.727" cy="381.431" r="31.392"/>
<line fill="#00FF00" stroke="#00FF00" stroke-width="5" x1="176.96" y1="356.964" x2="147.876" y2="321.878"/>
<line fill="#00FF00" stroke="#00FF00" stroke-width="5" x1="213.893" y1="356.041" x2="242.053" y2="321.878"/>
<g>
	<path fill="#00FF00" stroke="#00FF00" stroke-width="2" d="M312.345,353.77c18.011,0,32.606,14.595,32.606,32.599
		s-14.6,32.603-32.606,32.603c-18.004,0-32.595-14.599-32.595-32.603C279.749,368.365,294.34,353.77,312.345,353.77z"/>
	<polyline fill="#FFFFFF" stroke="#00FF00" stroke-width="5" points="312.345,418.972 312.345,457.747 323.211,439.216 	"/>
</g>
<g id="main_4_" transform="translate(-240 -280) scale(2 2)">
	<path fill="#00FF00" stroke="#00FF00" stroke-width="2" d="M332.988,315.536c9.138,0,16.551,7.409,16.551,16.549
		c0,9.146-7.413,16.547-16.551,16.547c-9.141,0-16.55-7.401-16.55-16.547C316.439,322.945,323.849,315.536,332.988,315.536z"/>
	<polyline fill="#FFFFFF" stroke="#00FF00" stroke-width="5" points="336.559,348.15 347.918,360.861 359.276,348.15 	"/>
	<polyline fill="#FFFFFF" stroke="#00FF00" stroke-width="5" points="328.363,348.15 318.145,360.861 308.248,348.15 	"/>
</g>
</svg>
