<?xml version="1.0" encoding="utf-8"?>
<!-- Generator: Adobe Illustrator 12.0.1, SVG Export Plug-In . SVG Version: 6.00 Build 51448)  -->
<!DOCTYPE svg PUBLIC "-//W3C//DTD SVG 1.1//EN" "http://www.w3.org/Graphics/SVG/1.1/DTD/svg11.dtd" [
	<!ENTITY ns_svg "http://www.w3.org/2000/svg">
	<!ENTITY ns_xlink "http://www.w3.org/1999/xlink">
]>
<svg  version="1.1" id="Version_1.2" xmlns="&ns_svg;" xmlns:xlink="&ns_xlink;" width="612" height="792" viewBox="0 0 612 792"
	 overflow="visible" enable-background="new 0 0 612 792" xml:space="preserve">
<g id="frame">
	<g>
		<polygon fill="#80E0FF" points="324.756,159.627 324.756,295.872 198.745,363.995 72.733,295.872 72.733,159.627 198.745,91.506 
					"/>
	</g>
	<g>
		<polygon fill="none" stroke="#000000" stroke-width="5" points="324.756,159.627 324.756,295.872 198.745,363.995 72.733,295.872 
			72.733,159.627 198.745,91.506 		"/>
	</g>
</g>
<g id="octagon" display="none">
	<polygon display="inline" fill="none" stroke="#0000FF" stroke-width="2" points="99.748,130.429 77.963,121.406 68.939,99.621 
		77.963,77.836 99.748,68.813 121.532,77.836 130.556,99.621 121.532,121.406 	"/>
	<line display="inline" fill="none" stroke="#0000FF" stroke-width="2" x1="73.864" y1="87.298" x2="125.631" y2="87.298"/>
	<line display="inline" fill="none" stroke="#0000FF" stroke-width="2" x1="73.864" y1="111.944" x2="125.631" y2="111.944"/>
</g>
<g id="main">
	<line fill="none" stroke="#000000" stroke-width="5" x1="167.351" y1="260.104" x2="227.145" y2="260.104"/>
	<line fill="none" stroke="#000000" stroke-width="5" x1="167.351" y1="220.351" x2="227.145" y2="220.351"/>
	<line fill="none" stroke="#000000" stroke-width="5" x1="197.25" y1="170.711" x2="197.25" y2="260.104"/>
	<polyline fill="none" stroke="#000000" stroke-width="5" points="167.798,184.921 197.25,169.583 227.147,184.921 	"/>
</g>
<g id="mod1">
	<ellipse cx="197.748" cy="140.031" rx="17.44" ry="16.331"/>
</g>
<g id="mod2">
	<text transform="matrix(1.068 0 0 1 124.6606 316.4141)" font-family="sans-serif" font-size="55.991">OF-2</text>
</g>
<g id="amplifier">
	<line fill="none" stroke="#000000" stroke-width="5" x1="199.176" y1="70.818" x2="66.488" y2="142.362"/>
	<line fill="none" stroke="#000000" stroke-width="5" x1="197.184" y1="70.508" x2="329.007" y2="142.362"/>
</g>
<g id="HQTFFD">
	<line fill="none" stroke="#000000" stroke-width="5" stroke-dasharray="17" x1="199.176" y1="53.088" x2="66.488" y2="124.633"/>
	<line fill="none" stroke="#000000" stroke-width="5" stroke-dasharray="17" x1="197.184" y1="52.778" x2="329.007" y2="124.633"/>
</g>
</svg>
