<?xml version="1.0" encoding="utf-8"?>
<!-- Generator: APP-6(D)(2) Adobe Illustrator 12.0.1, SVG Export Plug-In . SVG Version: 6.00 Build 51448)  -->
<!DOCTYPE svg PUBLIC "-//W3C//DTD SVG 1.1//EN" "http://www.w3.org/Graphics/SVG/1.1/DTD/svg11.dtd" [
	<!ENTITY ns_svg "http://www.w3.org/2000/svg">
	<!ENTITY ns_xlink "http://www.w3.org/1999/xlink">
]>
<svg  version="1.1" id="Version_1.2" xmlns="&ns_svg;" xmlns:xlink="&ns_xlink;" width="200" height="200" viewBox="0 0 612 792"
	 overflow="visible" enable-background="new 0 0 612 792" xml:space="preserve">
<g id="frame">
	<g>
		<polygon fill="#80E0FF" points="432.44,323.5 432.44,469.5 306,542.5 179.56,469.5 179.56,323.5 306,250.5 		"/>
	</g>
	<g>
		<polygon fill="none" stroke="#000000" stroke-width="5" points="432.44,323.5 432.44,469.5 306,542.5 179.56,469.5 179.56,323.5 
			306,250.5 		"/>
	</g>
</g>
<g id="octagon" display="none">
	<polygon display="inline" fill="none" stroke="#0000FF" stroke-width="2" points="305,516.5 218.733,480.768 183,394.5 
		218.733,308.233 305,272.5 391.268,308.233 427,394.5 391.268,480.768 	"/>
	<line display="inline" fill="none" stroke="#0000FF" stroke-width="2" x1="202.5" y1="345.7" x2="407.5" y2="345.7"/>
	<line display="inline" fill="none" stroke="#0000FF" stroke-width="2" x1="202.5" y1="443.3" x2="407.5" y2="443.3"/>
</g>
<g id="main">
	<line fill="none" stroke="#000000" stroke-width="5" x1="274.5" y1="431.17" x2="334.498" y2="431.17"/>
	<line fill="none" stroke="#000000" stroke-width="5" x1="274.5" y1="388.572" x2="334.498" y2="388.572"/>
	<line fill="none" stroke="#000000" stroke-width="5" x1="304.499" y1="335.378" x2="304.499" y2="431.17"/>
	<polyline fill="none" stroke="#000000" stroke-width="5" points="274.949,350.605 304.499,334.17 334.5,350.605 	"/>
</g>
<g id="mod1">
	<circle cx="305" cy="302.5" r="17.5"/>
</g>
<g id="mod2">
	<text transform="matrix(1 0 0 1 231.665 491.5146)" font-family="sans-serif" font-size="60">OF-2</text>
</g>
<g id="amplifier">
	<line fill="none" stroke="#000000" stroke-width="5" x1="306.433" y1="228.333" x2="173.294" y2="305"/>
	<line fill="none" stroke="#000000" stroke-width="5" x1="304.433" y1="228" x2="436.706" y2="305"/>
</g>
<g id="HQTFFD">
	<line fill="none" stroke="#000000" stroke-width="5" stroke-dasharray="17" x1="306.433" y1="209.333" x2="173.294" y2="286"/>
	<line fill="none" stroke="#000000" stroke-width="5" stroke-dasharray="17" x1="304.433" y1="209" x2="436.706" y2="286"/>
</g>
</svg>
