<?xml version="1.0" encoding="utf-8"?>
<!-- APP-6(D)(2) Generator: Adobe Illustrator 12.0.1, SVG Export Plug-In . SVG Version: 6.00 Build 51448)  -->
<!DOCTYPE svg PUBLIC "-//W3C//DTD SVG 1.1//EN" "http://www.w3.org/Graphics/SVG/1.1/DTD/svg11.dtd" [
	<!ENTITY ns_svg "http://www.w3.org/2000/svg">
	<!ENTITY ns_xlink "http://www.w3.org/1999/xlink">
]>
<svg  version="1.1" id="Version_1.2" xmlns="&ns_svg;" xmlns:xlink="&ns_xlink;" width="240" height="271"
	 viewBox="106.5 109.5 240 271" overflow="visible" enable-background="new 106.5 109.5 240 271" xml:space="preserve">
<g id="Main">
	<g id="fill">
		<g>
			<line fill="none" stroke="#000000" stroke-width="3.3174" x1="295.373" y1="367.167" x2="332.353" y2="289.833"/>
			<line fill="none" stroke="#000000" stroke-width="3.3174" x1="283.057" y1="370.917" x2="336.107" y2="261.5"/>
			<line fill="none" stroke="#000000" stroke-width="3.3174" x1="268.801" y1="372.018" x2="337.703" y2="236.167"/>
			<line fill="none" stroke="#000000" stroke-width="3.3174" x1="257.156" y1="370.354" x2="335.375" y2="215.259"/>
			<line fill="none" stroke="#000000" stroke-width="3.3174" x1="246.492" y1="367.167" x2="329.906" y2="202.094"/>
			<line fill="none" stroke="#000000" stroke-width="3.3174" x1="232.176" y1="364.165" x2="323.688" y2="189.26"/>
			<line fill="none" stroke="#000000" stroke-width="3.3174" x1="221.495" y1="360.854" x2="316.831" y2="181.227"/>
			<line fill="none" stroke="#000000" stroke-width="3.3174" x1="211.695" y1="357.025" x2="307.267" y2="172.055"/>
			<line fill="none" stroke="#000000" stroke-width="3.3174" x1="202.68" y1="353.188" x2="298.816" y2="165.086"/>
			<line fill="none" stroke="#000000" stroke-width="3.3174" x1="194.168" y1="347.167" x2="290.307" y2="158.806"/>
			<line fill="none" stroke="#000000" stroke-width="3.3174" x1="184.514" y1="343.174" x2="281.049" y2="153.165"/>
			<line fill="none" stroke="#000000" stroke-width="3.3174" x1="173.641" y1="336.833" x2="271.221" y2="146.654"/>
			<line fill="none" stroke="#000000" stroke-width="3.3174" x1="166.595" y1="327.234" x2="262.27" y2="141.691"/>
			<line fill="none" stroke="#000000" stroke-width="3.3174" x1="156.711" y1="317.143" x2="250.915" y2="135.997"/>
			<line fill="none" stroke="#000000" stroke-width="3.3174" x1="149.373" y1="306.121" x2="239.279" y2="130.83"/>
			<line fill="none" stroke="#000000" stroke-width="3.3174" x1="140.529" y1="294.93" x2="227.74" y2="126.414"/>
			<line fill="none" stroke="#000000" stroke-width="3.3174" x1="132.24" y1="281.886" x2="213.841" y2="122.165"/>
			<line fill="none" stroke="#000000" stroke-width="3.3174" x1="122.969" y1="268.201" x2="200.265" y2="119.666"/>
			<line fill="none" stroke="#000000" stroke-width="3.3174" x1="118.832" y1="252.986" x2="187.169" y2="118.929"/>
		</g>
		<g>
			<rect x="161.378" y="162.5" fill="#FFFFFF" width="76.535" height="43"/>
			<rect x="169.827" y="173.5" fill="none" width="59.638" height="21"/>
			<text transform="matrix(0.994 0 0 1 170.0259 194.2637)" font-family="sans-serif" font-size="29">LAA</text>
		</g>
	</g>
	
		<path fill="none" stroke="#000000" stroke-width="4.93" stroke-linecap="round" stroke-linejoin="round" stroke-miterlimit="10" d="
		M185.582,119.42c-34.695,5.743-54.304,88.204-63.351,115.049c-9.066,26.848-3.028,26.848,9.047,46.014
		c12.057,19.188,34.695,55.615,63.351,69.037c28.657,13.426,85.988,36.435,108.605,11.504
		c22.64-24.926,46.771-120.812,27.164-161.081C310.789,159.691,220.275,113.658,185.582,119.42"/>
</g>
<g id="template" display="none">
	<g display="inline">
		<rect x="161.378" y="212.125" fill="#FFFFFF" stroke="#020202" width="76.535" height="43"/>
		<rect x="161.378" y="219.125" fill="none" width="76.536" height="29"/>
		<text transform="matrix(0.994 0 0 1 170.228 229.8652)"><tspan x="0" y="0" font-family="sans-serif" font-size="15">Sector 1</tspan><tspan x="0.432" y="18" font-family="sans-serif" font-size="15">Modifier</tspan></text>
	</g>
	<g display="inline">
		<rect x="161.378" y="261.75" fill="#FFFFFF" stroke="#000000" width="76.535" height="43"/>
		<rect x="178.4" y="272.375" fill="none" width="42.493" height="21"/>
		<text transform="matrix(0.994 0 0 1 189.2383 293.1387)" font-family="sans-serif" font-size="29">H</text>
	</g>
</g>
<g id="Example" display="none">
	<g display="inline">
		<rect x="169.504" y="238.406" fill="#FFFFFF" width="60.285" height="36.25"/>
		<rect x="167.096" y="242.178" fill="none" width="65.1" height="28.707"/>
		<text transform="matrix(0.9998 0 0 1 176.4561 252.8555)"><tspan x="0" y="0" font-family="sans-serif" font-size="14.9128">Boggy </tspan><tspan x="-3.725" y="17.895" font-family="sans-serif" font-size="14.9128">Ground</tspan></text>
	</g>
	<g display="inline">
		<g>
			<rect x="164.214" y="210.64" fill="#FFFFFF" width="70.866" height="22.721"/>
		</g>
		<g>
			
				<line fill="none" stroke="#000000" stroke-width="3" stroke-linecap="round" stroke-linejoin="round" stroke-miterlimit="10" x1="167.05" y1="215.608" x2="232.249" y2="215.608"/>
			<path fill="none" stroke="#000000" stroke-width="3" stroke-linecap="round" stroke-linejoin="round" stroke-miterlimit="10" d="
				M173.851,215.608c3.536,0,6.392,2.855,6.392,6.392s-2.855,6.392-6.392,6.392s-6.395-2.855-6.395-6.392
				S170.315,215.608,173.851,215.608z"/>
			<path fill="none" stroke="#000000" stroke-width="3" stroke-linecap="round" stroke-linejoin="round" stroke-miterlimit="10" d="
				M199.657,215.608c3.521,0,6.376,2.855,6.376,6.392s-2.855,6.392-6.376,6.392c-3.543,0-6.41-2.855-6.41-6.392
				S196.114,215.608,199.657,215.608z"/>
			<path fill="none" stroke="#000000" stroke-width="3" stroke-linecap="round" stroke-linejoin="round" stroke-miterlimit="10" d="
				M225.433,215.608c3.52,0,6.403,2.855,6.403,6.392s-2.884,6.392-6.403,6.392c-3.531,0-6.408-2.855-6.408-6.392
				S221.901,215.608,225.433,215.608z"/>
		</g>
	</g>
</g>
</svg>
