<?xml version="1.0" encoding="utf-8"?>
<!-- Generator: APP-6(D)(2) Adobe Illustrator 12.0.1, SVG Export Plug-In . SVG Version: 6.00 Build 51448)  -->
<!DOCTYPE svg PUBLIC "-//W3C//DTD SVG 1.1//EN" "http://www.w3.org/Graphics/SVG/1.1/DTD/svg11.dtd" [
	<!ENTITY ns_svg "http://www.w3.org/2000/svg">
	<!ENTITY ns_xlink "http://www.w3.org/1999/xlink">
]>
<svg  version="1.1" id="Layer_1" xmlns="&ns_svg;" xmlns:xlink="&ns_xlink;" width="436" height="373" viewBox="-60.3 -1.1 436 373"
	 overflow="visible" enable-background="new -60.3 -1.1 436 373" xml:space="preserve">
<g id="main">
	<text transform="matrix(1.1901 0 0 1 292.4277 323.9956)" font-family="'ArialMT'" font-size="42.4394">C</text>
	<polygon points="5.21,211.789 20.811,204.828 36.411,197.867 34.638,214.858 32.866,231.85 19.038,221.818 	"/>
	<polygon points="96.409,301.68 83.509,312.878 70.609,324.078 67.36,307.306 64.112,290.535 80.261,296.108 	"/>
	<path fill="none" stroke="#000000" stroke-width="5" d="M286.737,324.906C259.731,342.546,227.464,352.8,192.8,352.8
		c-47.718,0-90.897-19.43-122.057-50.813c-1.148-1.155-2.281-2.327-3.396-3.519"/>
	<path fill="none" stroke="#000000" stroke-width="5" d="M26.363,224.363c-0.23-0.884-0.455-1.77-0.671-2.658
		c-3.198-13.109-4.893-26.81-4.893-40.904c0-94.993,77.007-172,172-172c94.993,0,172,77.007,172,172
		c0,39.533-13.337,75.949-35.756,104.996"/>
</g>
<g id="template" display="none">
	<g id="point_2" display="inline">
		<g id="pt2" transform="matrix(1.25 0 0 1.25 -42.5 47.5)">
			<text transform="matrix(0.8 0 0 0.8 -4.6727 223.5043)" font-family="'ArialMT'" font-size="24">POINT)</text>
			<text transform="matrix(0.8 0 0 0.8 -9.6727 207.5043)" font-family="'ArialMT'" font-size="24">(START</text>
			<text transform="matrix(0.8 0 0 0.8 6.3273 192.5043)" font-family="'ArialMT'" font-size="24">PT. 2</text>
		</g>
		<line fill="none" stroke="#000000" stroke-width="2" x1="6.387" y1="249.539" x2="-36.964" y2="271.067"/>
		<polygon stroke="#000000" stroke-width="2" points="31.037,234.042 10.063,256.886 1.035,241.893 		"/>
	</g>
	<g id="point_1_1_" display="inline">
		<g id="pt1" transform="matrix(1.25 0 0 1.25 -42.5 47.5)">
			<text transform="matrix(0.8 0 0 0.8 170.207 153.5855)" font-family="'ArialMT'" font-size="24">POINT)</text>
			<text transform="matrix(0.8 0 0 0.8 161.207 137.7184)" font-family="'ArialMT'" font-size="24">(CENTER</text>
			<text transform="matrix(0.8 0 0 0.8 177.207 122.5855)" font-family="'ArialMT'" font-size="24">PT. 1</text>
		</g>
		<circle cx="196.8" cy="176.4" r="4.4"/>
	</g>
</g>
</svg>
