<?xml version="1.0" encoding="utf-8"?>
<!-- Generator: APP-6(D)(2) Adobe Illustrator 12.0.1, SVG Export Plug-In . SVG Version: 6.00 Build 51448)  -->
<!DOCTYPE svg PUBLIC "-//W3C//DTD SVG 1.1//EN" "http://www.w3.org/Graphics/SVG/1.1/DTD/svg11.dtd" [
	<!ENTITY ns_svg "http://www.w3.org/2000/svg">
	<!ENTITY ns_xlink "http://www.w3.org/1999/xlink">
]>
<svg  version="1.1" id="Version_1.2" xmlns="&ns_svg;" xmlns:xlink="&ns_xlink;" width="612" height="792" viewBox="0 0 612 792"
	 overflow="visible" enable-background="new 0 0 612 792" xml:space="preserve">
<g>
	<path fill="#00FF00" stroke="#00FF00" stroke-width="2" d="M194.959,348.77c18.008,0,32.605,14.595,32.605,32.599
		c0,18.004-14.598,32.603-32.605,32.603c-18.004,0-32.595-14.599-32.595-32.603C162.364,363.365,176.955,348.77,194.959,348.77z"/>
	<polyline fill="#FFFFFF" stroke="#00FF00" stroke-width="5" points="194.959,413.972 194.959,452.747 205.824,434.216 	"/>
</g>
<g>
	<path fill="#00FF00" stroke="#00FF00" stroke-width="2" d="M308.346,349.77c18.008,0,32.605,14.595,32.605,32.599
		c0,18.004-14.598,32.603-32.605,32.603c-18.004,0-32.595-14.599-32.595-32.603C275.75,364.365,290.341,349.77,308.346,349.77z"/>
	<polyline fill="#FFFFFF" stroke="#00FF00" stroke-width="5" points="308.346,414.972 308.346,453.747 319.211,435.216 	"/>
</g>
<g>
	<path fill="#00FF00" stroke="#00FF00" stroke-width="2" d="M421.731,348.77c18.008,0,32.605,14.595,32.605,32.599
		c0,18.004-14.598,32.603-32.605,32.603c-18.004,0-32.595-14.599-32.595-32.603C389.137,363.365,403.728,348.77,421.731,348.77z"/>
	<polyline fill="#FFFFFF" stroke="#00FF00" stroke-width="5" points="421.731,413.972 421.731,452.747 432.597,434.216 	"/>
</g>
</svg>
