<?xml version="1.0" encoding="utf-8"?>
<!-- Generator: APP-6(D)(2) Adobe Illustrator 12.0.1, SVG Export Plug-In . SVG Version: 6.00 Build 51448)  -->
<!DOCTYPE svg PUBLIC "-//W3C//DTD SVG 1.1//EN" "http://www.w3.org/Graphics/SVG/1.1/DTD/svg11.dtd" [
	<!ENTITY ns_svg "http://www.w3.org/2000/svg">
	<!ENTITY ns_xlink "http://www.w3.org/1999/xlink">
]>
<svg  version="1.1" id="Version_1.2" xmlns="&ns_svg;" xmlns:xlink="&ns_xlink;" width="612" height="792" viewBox="0 0 612 792"
	 overflow="visible" enable-background="new 0 0 612 792" xml:space="preserve">
<g id="main" transform="translate(-240 -280) scale(2 2)">
	<path fill="#00FF00" stroke="#00FF00" stroke-width="2" d="M273.401,314.954c9.138,0,16.551,7.409,16.551,16.549
		c0,9.146-7.413,16.547-16.551,16.547c-9.139,0-16.548-7.401-16.548-16.547C256.854,322.363,264.263,314.954,273.401,314.954z"/>
	<polyline fill="#FFFFFF" stroke="#00FF00" stroke-width="5" points="276.971,347.568 288.331,360.279 299.688,347.568 	"/>
	<polyline fill="#FFFFFF" stroke="#00FF00" stroke-width="5" points="268.777,347.568 258.559,360.279 248.662,347.568 	"/>
</g>
<g id="main_2_" transform="translate(-240 -280) scale(2 2)">
	<path fill="#00FF00" stroke="#00FF00" stroke-width="2" d="M216.708,314.954c9.138,0,16.551,7.409,16.551,16.549
		c0,9.146-7.413,16.547-16.551,16.547c-9.139,0-16.548-7.401-16.548-16.547C200.161,322.363,207.57,314.954,216.708,314.954z"/>
	<polyline fill="#FFFFFF" stroke="#00FF00" stroke-width="5" points="220.278,347.568 231.638,360.279 242.996,347.568 	"/>
	<polyline fill="#FFFFFF" stroke="#00FF00" stroke-width="5" points="212.084,347.568 201.866,360.279 191.969,347.568 	"/>
</g>
<g id="main_3_" transform="translate(-240 -280) scale(2 2)">
	<path fill="#00FF00" stroke="#00FF00" stroke-width="2" d="M330.094,314.954c9.138,0,16.551,7.409,16.551,16.549
		c0,9.146-7.413,16.547-16.551,16.547c-9.139,0-16.548-7.401-16.548-16.547C313.546,322.363,320.956,314.954,330.094,314.954z"/>
	<polyline fill="#FFFFFF" stroke="#00FF00" stroke-width="5" points="333.664,347.568 345.023,360.279 356.381,347.568 	"/>
	<polyline fill="#FFFFFF" stroke="#00FF00" stroke-width="5" points="325.469,347.568 315.251,360.279 305.355,347.568 	"/>
</g>
</svg>
