<?xml version="1.0" encoding="utf-8"?>
<!-- Generator: APP-6(D)(2) Adobe Illustrator 12.0.1, SVG Export Plug-In . SVG Version: 6.00 Build 51448)  -->
<!DOCTYPE svg PUBLIC "-//W3C//DTD SVG 1.1//EN" "http://www.w3.org/Graphics/SVG/1.1/DTD/svg11.dtd" [
	<!ENTITY ns_svg "http://www.w3.org/2000/svg">
	<!ENTITY ns_xlink "http://www.w3.org/1999/xlink">
]>
<svg  version="1.1" id="Version_1.2" xmlns="&ns_svg;" xmlns:xlink="&ns_xlink;" width="612" height="792" viewBox="0 0 612 792"
	 overflow="visible" enable-background="new 0 0 612 792" xml:space="preserve">
<g id="main_3_" transform="translate(-240 -280) scale(2 2)">
	<path fill="#00FF00" stroke="#00FF00" stroke-width="2" d="M219.465,315.315c8.614,0,15.595,6.978,15.595,15.589
		c0,8.613-6.981,15.594-15.595,15.594c-8.61,0-15.589-6.981-15.589-15.594C203.876,322.293,210.855,315.315,219.465,315.315z"/>
</g>
<g id="main_5_" transform="translate(-240 -280) scale(2 2)">
	<path fill="#00FF00" stroke="#00FF00" stroke-width="2" d="M331.465,314.815c8.614,0,15.595,6.978,15.595,15.589
		c0,8.613-6.981,15.594-15.595,15.594c-8.61,0-15.589-6.981-15.589-15.594C315.876,321.793,322.854,314.815,331.465,314.815z"/>
</g>
<g>
	<path fill="#00FF00" stroke="#00FF00" stroke-width="2" d="M311.345,349.77c18.011,0,32.606,14.595,32.606,32.599
		s-14.6,32.603-32.606,32.603c-18.004,0-32.595-14.599-32.595-32.603C278.749,364.365,293.34,349.77,311.345,349.77z"/>
	<polyline fill="#FFFFFF" stroke="#00FF00" stroke-width="5" points="311.345,414.972 311.345,453.747 322.211,435.216 	"/>
</g>
</svg>
