<?xml version="1.0" encoding="utf-8"?>
<!-- Generator: APP-6(D)(2) Adobe Illustrator 12.0.1, SVG Export Plug-In . SVG Version: 6.00 Build 51448)  -->
<!DOCTYPE svg PUBLIC "-//W3C//DTD SVG 1.1//EN" "http://www.w3.org/Graphics/SVG/1.1/DTD/svg11.dtd" [
	<!ENTITY ns_svg "http://www.w3.org/2000/svg">
	<!ENTITY ns_xlink "http://www.w3.org/1999/xlink">
]>
<svg  version="1.1" id="Version_1.2" xmlns="&ns_svg;" xmlns:xlink="&ns_xlink;" width="612" height="792" viewBox="0 0 612 792"
	 overflow="visible" enable-background="new 0 0 612 792" xml:space="preserve">
<g id="main_3_" transform="translate(-240 -280) scale(2 2)">
	<path fill="#00FF00" stroke="#00FF00" stroke-width="2" d="M219.465,315.315c8.614,0,15.595,6.978,15.595,15.589
		c0,8.613-6.981,15.594-15.595,15.594c-8.61,0-15.589-6.981-15.589-15.594C203.876,322.293,210.855,315.315,219.465,315.315z"/>
</g>
<g id="main_5_" transform="translate(-240 -280) scale(2 2)">
	<path fill="#00FF00" stroke="#00FF00" stroke-width="2" d="M331.465,314.815c8.614,0,15.595,6.978,15.595,15.589
		c0,8.613-6.981,15.594-15.595,15.594c-8.61,0-15.589-6.981-15.589-15.594C315.876,321.793,322.854,314.815,331.465,314.815z"/>
</g>
<g id="main_4_" transform="translate(-240 -280) scale(2 2)">
	<path fill="#00FF00" stroke="#00FF00" stroke-width="2" d="M275.488,314.536c9.138,0,16.551,7.409,16.551,16.549
		c0,9.146-7.413,16.547-16.551,16.547c-9.14,0-16.55-7.401-16.55-16.547C258.94,321.945,266.349,314.536,275.488,314.536z"/>
	<polyline fill="#FFFFFF" stroke="#00FF00" stroke-width="5" points="279.059,347.15 290.418,359.861 301.776,347.15 	"/>
	<polyline fill="#FFFFFF" stroke="#00FF00" stroke-width="5" points="270.863,347.15 260.645,359.861 250.748,347.15 	"/>
</g>
</svg>
