<?xml version="1.0" encoding="utf-8"?>
<!-- Generator: APP-6(D)(2) Adobe Illustrator 12.0.1, SVG Export Plug-In . SVG Version: 6.00 Build 51448)  -->
<!DOCTYPE svg PUBLIC "-//W3C//DTD SVG 1.1//EN" "http://www.w3.org/Graphics/SVG/1.1/DTD/svg11.dtd" [
	<!ENTITY ns_svg "http://www.w3.org/2000/svg">
	<!ENTITY ns_xlink "http://www.w3.org/1999/xlink">
]>
<svg  version="1.1" id="Version_1.2" xmlns="&ns_svg;" xmlns:xlink="&ns_xlink;" width="612" height="792" viewBox="0 0 612 792"
	 overflow="visible" enable-background="new 0 0 612 792" xml:space="preserve">
<g id="main_3_" transform="translate(-240 -280) scale(2 2)">
	<path fill="#00FF00" stroke="#00FF00" stroke-width="2" d="M219.465,315.315c8.614,0,15.595,6.978,15.595,15.589
		c0,8.613-6.981,15.594-15.595,15.594c-8.61,0-15.589-6.981-15.589-15.594C203.876,322.293,210.855,315.315,219.465,315.315z"/>
</g>
<g id="main_5_" transform="translate(-240 -280) scale(2 2)">
	<path fill="#00FF00" stroke="#00FF00" stroke-width="2" d="M331.465,314.815c8.614,0,15.595,6.978,15.595,15.589
		c0,8.613-6.981,15.594-15.595,15.594c-8.61,0-15.589-6.981-15.589-15.594C315.876,321.793,322.854,314.815,331.465,314.815z"/>
</g>
<g id="main_2_">
	<path fill="none" stroke="#00FF00" stroke-width="5" stroke-dasharray="15 15" d="M265.444,397.885
		c0-25.398,20.587-45.988,45.996-45.988c25.388,0,45.979,20.588,45.979,45.988"/>
	
		<line fill="none" stroke="#00FF00" stroke-width="5" stroke-dasharray="15 15" x1="264.578" y1="398.497" x2="358.122" y2="398.529"/>
</g>
</svg>
