<?xml version="1.0" encoding="utf-8"?>
<!-- Generator: APP-6(D)(2) Adobe Illustrator 12.0.1, SVG Export Plug-In . SVG Version: 6.00 Build 51448)  -->
<!DOCTYPE svg PUBLIC "-//W3C//DTD SVG 1.1//EN" "http://www.w3.org/Graphics/SVG/1.1/DTD/svg11.dtd" [
	<!ENTITY ns_svg "http://www.w3.org/2000/svg">
	<!ENTITY ns_xlink "http://www.w3.org/1999/xlink">
]>
<svg  version="1.1" id="Version_1.2" xmlns="&ns_svg;" xmlns:xlink="&ns_xlink;" width="612" height="792" viewBox="0 0 612 792"
	 overflow="visible" enable-background="new 0 0 612 792" xml:space="preserve">
<g>
	<path fill="#00FF00" stroke="#00FF00" stroke-width="2" d="M199.345,349.77c18.011,0,32.606,14.595,32.606,32.599
		s-14.6,32.603-32.606,32.603c-18.004,0-32.595-14.599-32.595-32.603C166.749,364.365,181.34,349.77,199.345,349.77z"/>
	<polyline fill="#FFFFFF" stroke="#00FF00" stroke-width="5" points="199.345,414.972 199.345,453.747 210.211,435.216 	"/>
</g>
<g>
	<path fill="#00FF00" stroke="#00FF00" stroke-width="2" d="M423.345,347.77c18.011,0,32.606,14.595,32.606,32.599
		s-14.6,32.603-32.606,32.603c-18.004,0-32.595-14.599-32.595-32.603C390.749,362.365,405.34,347.77,423.345,347.77z"/>
	<polyline fill="#FFFFFF" stroke="#00FF00" stroke-width="5" points="423.345,412.972 423.345,451.747 434.211,433.216 	"/>
</g>
<g id="main_4_" transform="translate(-240 -280) scale(2 2)">
	<path fill="#00FF00" stroke="#00FF00" stroke-width="2" d="M276.988,317.036c9.138,0,16.551,7.409,16.551,16.549
		c0,9.146-7.413,16.547-16.551,16.547c-9.14,0-16.55-7.401-16.55-16.547C260.44,324.445,267.849,317.036,276.988,317.036z"/>
	<polyline fill="#FFFFFF" stroke="#00FF00" stroke-width="5" points="280.559,349.65 291.918,362.361 303.276,349.65 	"/>
	<polyline fill="#FFFFFF" stroke="#00FF00" stroke-width="5" points="272.363,349.65 262.145,362.361 252.248,349.65 	"/>
</g>
</svg>
